<svg width="18" height="18" viewBox="0 0 18 18" fill="none" xmlns="http://www.w3.org/2000/svg">
<path d="M12.3353 15.6021H5.59673C5.15629 15.6021 4.93607 15.6021 4.83409 15.515C4.74561 15.4394 4.69865 15.326 4.70778 15.21C4.7183 15.0763 4.87402 14.9206 5.18546 14.6092L11.3673 8.42734C11.6552 8.13942 11.7992 7.99546 11.9652 7.94153C12.1112 7.89408 12.2685 7.89408 12.4145 7.94153C12.5805 7.99546 12.7245 8.13942 13.0124 8.42733L15.825 11.2399V12.1124M12.3353 15.6021C13.5568 15.6021 14.1675 15.6021 14.6341 15.3644C15.0445 15.1552 15.3781 14.8216 15.5873 14.4112C15.825 13.9446 15.825 13.3339 15.825 12.1124M12.3353 15.6021H6.22825C5.00673 15.6021 4.39597 15.6021 3.92941 15.3644C3.51902 15.1552 3.18536 14.8216 2.97625 14.4112C2.73853 13.9446 2.73853 13.3339 2.73853 12.1124V6.00535C2.73853 4.78383 2.73853 4.17307 2.97625 3.70651C3.18536 3.29612 3.51902 2.96246 3.92941 2.75335C4.39597 2.51562 5.00673 2.51562 6.22825 2.51562H12.3353C13.5568 2.51562 14.1675 2.51562 14.6341 2.75335C15.0445 2.96246 15.3781 3.29612 15.5873 3.70651C15.825 4.17307 15.825 4.78383 15.825 6.00535V12.1124M8.19121 6.51426C8.19121 7.31731 7.54021 7.96831 6.73716 7.96831C5.93411 7.96831 5.28311 7.31731 5.28311 6.51426C5.28311 5.71121 5.93411 5.06021 6.73716 5.06021C7.54021 5.06021 8.19121 5.71121 8.19121 6.51426Z" stroke="#F5F5F5" stroke-width="1.45405" stroke-linecap="round" stroke-linejoin="round"/>
</svg>
